# Blender v2.78 (sub 0) OBJ File: 'UglyBranch.blend'
# www.blender.org
mtllib UglyBranch.mtl
o UglyBranch_Mesh
v 0.000000 1.000000 -1.000000
v 0.005678 0.951456 1.000000
v 0.464723 0.885456 -1.000000
v 0.338432 0.976853 1.000000
v 0.822984 0.568065 -1.000000
v 0.660867 0.691201 1.000000
v 0.992709 0.120537 -1.000000
v 0.813619 0.288426 1.000000
v 0.935016 -0.354605 -1.000000
v 0.761696 -0.139202 1.000000
v 0.663123 -0.748511 -1.000000
v 0.516992 -0.493717 1.000000
v 0.239316 -0.970942 -1.000000
v 0.135565 -0.693905 1.000000
v -0.239316 -0.970942 -1.000000
v -0.295203 -0.693905 1.000000
v -0.663123 -0.748511 -1.000000
v -0.676629 -0.493717 1.000000
v -0.935016 -0.354605 -1.000000
v -0.835837 -0.267689 1.000000
v -0.992709 0.120537 -1.000000
v -0.887760 0.159939 1.000000
v -0.822984 0.568065 -1.000000
v -0.735007 0.562714 1.000000
v -0.464723 0.885456 -1.000000
v -0.412573 0.848366 1.000000
v 0.248517 0.630000 3.000000
v -0.146001 0.123360 8.000000
v 0.541292 0.557837 3.000000
v 0.766996 0.357881 3.000000
v 0.873923 0.075938 3.000000
v 0.837577 -0.223401 3.000000
v 0.666284 -0.471562 3.000000
v 0.399285 -0.611694 3.000000
v 0.012490 -0.670102 3.000000
v -0.254508 -0.529970 3.000000
v -0.425801 -0.281809 3.000000
v -0.462147 0.017530 3.000000
v -0.355221 0.299473 3.000000
v -0.129516 0.499429 3.000000
v -0.100077 0.576096 5.000000
v 0.248444 0.015090 9.984014
v 0.134143 0.518366 5.000000
v 0.314707 0.358401 5.000000
v 0.400248 0.132847 5.000000
v 0.371171 -0.106625 5.000000
v 0.234137 -0.305153 5.000000
v -0.025919 -0.489355 5.000000
v -0.267150 -0.489355 5.000000
v -0.480748 -0.377250 5.000000
v -0.617783 -0.178721 5.000000
v -0.646860 0.060750 5.000000
v -0.561318 0.286305 5.000000
v -0.334297 0.518366 5.000000
v 0.009085 0.044840 7.984014
v 0.061391 0.014513 8.000000
v 0.104161 -0.098265 8.000000
v 0.089623 -0.218000 8.000000
v 0.021106 -0.317264 8.000000
v -0.081868 -0.350338 8.000000
v -0.202483 -0.350338 8.000000
v -0.309282 -0.294285 8.000000
v -0.377799 -0.195021 8.000000
v -0.392338 -0.075285 8.000000
v -0.349567 0.037492 8.000000
v -0.263111 0.094495 8.000000
v 0.000000 -0.000000 11.000000
v 0.318710 -0.002229 9.984014
v 0.372879 -0.050219 9.984014
v 0.398541 -0.117885 9.984014
v 0.389818 -0.189726 9.984014
v 0.348708 -0.249285 9.984014
v 0.246653 -0.233261 10.000000
v 0.174284 -0.233261 10.000000
v 0.110204 -0.199630 10.000000
v 0.069094 -0.140071 10.000000
v 0.060370 -0.068230 10.000000
v 0.124009 -0.050218 9.984014
v 0.178178 -0.002229 9.984014
v -0.078664 0.230000 5.700546
v 1.032729 0.172805 7.540190
v 0.057323 0.176190 5.642543
v 1.134899 0.132376 7.496610
v 0.129681 0.039939 5.611680
v 1.189263 0.030007 7.473422
v 0.104551 -0.115000 5.622398
v 1.170383 -0.086402 7.481475
v -0.006307 -0.216130 5.669683
v 1.087093 -0.162383 7.517002
v -0.151022 -0.216130 5.731410
v 0.978365 -0.162383 7.563378
v -0.261880 -0.115000 5.778695
v 0.895075 -0.086402 7.598904
v -0.287009 0.039939 5.789413
v 0.876194 0.030007 7.606957
v -0.214652 0.176190 5.758550
v 0.930558 0.132376 7.583769
v 1.192496 0.217968 8.680738
v 1.339319 0.000000 9.599046
v 1.252757 0.194123 8.655035
v 1.284821 0.133745 8.641357
v 1.273685 0.065086 8.646109
v 1.224560 0.020272 8.667062
v 1.160432 0.020272 8.694415
v 1.111307 0.065086 8.715368
v 1.100171 0.133745 8.720118
v 1.132235 0.194123 8.706442
vt 0.7515 0.8479
vt 0.8108 0.8468
vt 0.8077 0.5696
vt 0.7662 0.5703
vt 0.2778 0.1146
vt 0.0005 0.1154
vt 0.0005 0.1615
vt 0.2778 0.1790
vt 0.5258 0.0044
vt 0.5853 0.0089
vt 0.6011 0.2881
vt 0.5477 0.2841
vt 0.0005 0.2062
vt 0.2778 0.2287
vt 0.7409 0.4528
vt 0.7409 0.5121
vt 0.4636 0.4826
vt 0.4636 0.4411
vt 0.1827 0.2409
vt 0.1827 0.5187
vt 0.1269 0.5153
vt 0.1208 0.2371
vt 0.4274 0.0084
vt 0.3813 0.0059
vt 0.4002 0.2846
vt 0.4408 0.2867
vt 0.0678 0.5116
vt 0.0550 0.2331
vt 0.3234 0.0029
vt 0.3479 0.2818
vt 0.0187 0.5086
vt 0.0005 0.2297
vt 0.6957 0.8489
vt 0.7271 0.5710
vt 0.2788 0.5679
vt 0.2972 0.2905
vt 0.3500 0.2902
vt 0.3375 0.5675
vt 0.4730 0.0005
vt 0.5107 0.2813
vt 0.4098 0.2898
vt 0.4039 0.5671
vt 0.7409 0.4037
vt 0.4636 0.4067
vt 0.4626 0.2894
vt 0.4626 0.5667
vt 0.4720 0.0108
vt 0.4720 0.2884
vt 0.2778 0.5197
vt 0.0005 0.5550
vt 0.0005 0.5864
vt 0.2778 0.5743
vt 0.2788 0.0005
vt 0.3167 0.2802
vt 0.0005 0.6456
vt 0.2778 0.6402
vt 0.8421 0.8462
vt 0.8421 0.5689
vt 0.0005 0.7015
vt 0.2778 0.7022
vt 0.6380 0.0128
vt 0.6380 0.2908
vt 0.2778 0.0005
vt 0.0005 0.0127
vt 0.0005 0.0574
vt 0.2778 0.0502
vt 0.7409 0.5679
vt 0.4636 0.5217
vt 0.9699 0.8480
vt 0.9332 0.8521
vt 0.9405 0.5723
vt 0.9699 0.5689
vt 0.0349 0.7032
vt 0.0764 0.7033
vt 0.0842 0.9805
vt 0.0510 0.9805
vt 0.5560 0.9995
vt 0.5560 0.9604
vt 0.2788 0.9664
vt 0.2788 0.9977
vt 0.8799 0.8581
vt 0.9073 0.5760
vt 0.1155 0.7033
vt 0.1155 0.9805
vt 0.5560 0.9189
vt 0.2788 0.9332
vt 0.8431 0.8623
vt 0.8715 0.5801
vt 0.6390 0.2952
vt 0.6702 0.2920
vt 0.6979 0.0104
vt 0.6730 0.0130
vt 0.5560 0.8845
vt 0.2788 0.9057
vt 0.7105 0.2878
vt 0.7627 0.2824
vt 0.7625 0.0037
vt 0.7302 0.0071
vt 0.0005 0.7032
vt 0.0235 0.9805
vt 0.7938 0.2792
vt 0.7938 0.0005
vt 0.2788 0.7274
vt 0.2788 0.6914
vt 0.6947 0.7209
vt 0.6947 0.7352
vt 0.2788 0.5689
vt 0.2788 0.5940
vt 0.6924 0.6113
vt 0.6947 0.6041
vt 0.6947 0.8190
vt 0.6947 0.7915
vt 0.2788 0.8030
vt 0.2788 0.8168
vt 0.2788 0.6264
vt 0.2788 0.6589
vt 0.6947 0.6490
vt 0.6947 0.6328
vt 0.8868 0.4164
vt 0.8593 0.4165
vt 0.8730 0.0006
vt 0.8868 0.0005
vt 0.2788 0.6904
vt 0.6947 0.6610
vt 0.2788 0.7905
vt 0.2788 0.7609
vt 0.6947 0.7519
vt 0.6947 0.7667
vt 0.8261 0.4166
vt 0.8564 0.0006
vt 0.6947 0.8835
vt 0.6947 0.8522
vt 0.2788 0.8334
vt 0.2788 0.8490
vt 0.7948 0.4168
vt 0.8408 0.0007
vt 0.2285 0.5176
vt 0.2140 0.5146
vt 0.2198 0.2325
vt 0.2285 0.2343
vt 0.7387 0.3234
vt 0.7387 0.3400
vt 0.4636 0.3373
vt 0.4636 0.3273
vt 0.7409 0.4026
vt 0.7409 0.3870
vt 0.4636 0.3880
vt 0.4659 0.3905
vt 0.1977 0.5111
vt 0.2100 0.2304
vt 0.7387 0.3556
vt 0.4636 0.3467
vt 0.7409 0.3704
vt 0.4636 0.3780
vt 0.1837 0.5082
vt 0.1957 0.2297
vt 0.1165 0.9808
vt 0.1230 0.9846
vt 0.1457 0.7050
vt 0.1384 0.7032
vt 0.7409 0.3567
vt 0.4636 0.3698
vt 0.1445 0.9875
vt 0.1603 0.9912
vt 0.1646 0.7095
vt 0.1551 0.7072
vt 0.7387 0.3096
vt 0.4636 0.3191
vt 0.1719 0.9940
vt 0.1719 0.7112
vt 0.8232 0.5679
vt 0.8162 0.4205
vt 0.8070 0.4238
vt 0.8232 0.4179
vt 0.8826 0.4179
vt 0.8649 0.5586
vt 0.8558 0.5563
vt 0.8746 0.5609
vt 0.8826 0.5629
vt 0.8548 0.5668
vt 0.8421 0.4246
vt 0.8548 0.4179
vt 0.8327 0.4278
vt 0.8242 0.4307
vt 0.9256 0.4179
vt 0.9175 0.5576
vt 0.9256 0.5593
vt 0.9078 0.5557
vt 0.7908 0.4298
vt 0.7833 0.4349
vt 0.7979 0.4272
vt 0.7120 0.9005
vt 0.7142 0.8845
vt 0.5584 0.8948
vt 0.5570 0.9042
vt 0.9639 0.3008
vt 0.9689 0.0029
vt 0.9537 0.0005
vt 0.9437 0.2976
vt 0.2332 0.7032
vt 0.2185 0.7078
vt 0.2245 0.8674
vt 0.2332 0.8647
vt 0.2295 0.4866
vt 0.2396 0.2297
vt 0.2537 0.2331
vt 0.2483 0.4912
vt 0.1866 0.8686
vt 0.1729 0.8636
vt 0.1852 0.7032
vt 0.1932 0.7062
vt 0.2698 0.2323
vt 0.2698 0.4900
vt 0.2630 0.7071
vt 0.2749 0.7032
vt 0.2749 0.8653
vt 0.2679 0.8676
vt 0.9427 0.0070
vt 0.9427 0.3040
vt 0.9302 0.3026
vt 0.9261 0.0050
vt 0.2342 0.7113
vt 0.2462 0.7078
vt 0.2527 0.8665
vt 0.2456 0.8686
vt 0.9139 0.3007
vt 0.9044 0.0025
vt 0.7142 0.9149
vt 0.5584 0.9127
vt 0.9015 0.2992
vt 0.8878 0.0005
vt 0.2038 0.7124
vt 0.2158 0.8701
vt 0.7823 0.5658
vt 0.7823 0.3134
vt 0.7662 0.3120
vt 0.7609 0.5639
vt 0.2027 0.8696
vt 0.2027 0.7068
vt 0.7520 0.3150
vt 0.7419 0.5679
vt 0.2619 0.7032
vt 0.2619 0.8638
vt 0.9842 0.3040
vt 0.9842 0.0053
vt 0.9627 0.5493
vt 0.9627 0.4179
vt 0.9541 0.4207
vt 0.9444 0.5517
vt 0.9358 0.4179
vt 0.9444 0.4181
vt 0.9266 0.4205
vt 0.9067 0.5503
vt 0.8998 0.4203
vt 0.9067 0.4179
vt 0.8906 0.4235
vt 0.8836 0.4259
vt 0.8421 0.9765
vt 0.8343 0.8535
vt 0.8249 0.8549
vt 0.8421 0.8499
vt 0.9454 0.4235
vn -0.9729 -0.1181 0.1986
vn 0.1111 0.9938 -0.0073
vn 0.0713 -0.9973 0.0163
vn 0.6631 0.7485 0.0077
vn 0.9918 -0.1204 -0.0427
vn 0.9337 0.3541 0.0539
vn 0.0734 0.9821 0.1736
vn 0.9879 -0.1200 0.0985
vn -0.2762 0.9413 0.1941
vn 0.8159 -0.5631 0.1314
vn -0.9124 0.3460 0.2188
vn 0.4598 -0.8761 0.1452
vn -0.4632 -0.8825 0.0818
vn 0.0000 -0.9905 0.1372
vn 0.8217 -0.5672 -0.0551
vn -0.4620 -0.8802 0.1090
vn 0.6605 0.7455 0.0892
vn -0.8192 -0.5697 0.0662
vn -0.6470 0.7303 0.2190
vn -0.9912 -0.1204 0.0544
vn -0.8096 -0.5643 0.1613
vn -0.9342 0.3543 0.0420
vn 0.4646 -0.8852 -0.0249
vn -0.6628 0.7481 0.0312
vn 0.9350 0.3546 0.0095
vn -0.2392 0.9707 0.0242
vn -0.4647 -0.8854 0.0150
vn 0.9656 -0.1172 0.2320
vn -0.9309 0.3530 -0.0936
vn 0.0922 -0.9915 0.0914
vn 0.9148 0.3469 0.2068
vn -0.9888 -0.1201 -0.0887
vn 0.5163 -0.8391 0.1712
vn 0.6558 0.7403 0.1481
vn -0.8220 -0.5674 -0.0497
vn -0.2938 0.9553 -0.0323
vn 0.8029 -0.5542 0.2196
vn 0.2388 0.9687 0.0677
vn -0.6886 0.7216 -0.0718
vn 0.5131 -0.8573 0.0411
vn 0.6202 0.7711 0.1445
vn -0.8214 -0.5669 0.0626
vn -0.2369 0.9612 0.1414
vn 0.8217 -0.5672 0.0561
vn 0.3320 0.9307 0.1535
vn -0.6735 0.7304 0.1136
vn -0.4641 -0.8843 0.0510
vn 0.9888 -0.1201 0.0883
vn -0.9308 0.3530 0.0950
vn 0.0000 -0.9989 0.0463
vn 0.9284 0.3521 0.1188
vn -0.9896 -0.1202 0.0785
vn -0.4603 -0.8770 0.1380
vn 0.9819 -0.1192 -0.1469
vn -0.7506 0.6336 0.1873
vn 0.0000 -0.9983 0.0584
vn 0.9266 0.3514 -0.1340
vn -0.9685 -0.1176 0.2196
vn 0.0853 -0.9958 0.0322
vn 0.5979 0.7984 -0.0708
vn -0.8071 -0.5571 0.1956
vn -0.2381 0.9661 0.1001
vn 0.8175 -0.5643 -0.1156
vn 0.3892 0.9206 -0.0329
vn -0.5893 0.7893 0.1726
vn 0.2387 0.9684 0.0727
vn 0.6494 0.7331 0.2021
vn 0.8891 0.3372 0.3096
vn 0.9206 -0.1118 0.3741
vn 0.7583 -0.5234 0.3887
vn -0.1219 -0.9728 0.1969
vn 0.0000 -0.9739 0.2272
vn -0.4611 -0.8786 0.1246
vn -0.8228 -0.5679 0.0227
vn -0.9914 -0.1204 -0.0516
vn -0.2906 0.9533 -0.0826
vn -0.6586 0.7434 -0.1171
vn -0.2391 0.9700 -0.0441
vn -0.9628 -0.1707 0.2096
vn 0.3055 0.9394 -0.1553
vn 0.3354 0.9383 -0.0841
vn 0.7550 0.4977 -0.4270
vn 0.8665 0.4860 -0.1141
vn 0.8557 -0.1725 -0.4879
vn 0.6816 -0.7309 0.0346
vn 0.5643 -0.7644 -0.3118
vn -0.6042 -0.7656 0.2209
vn 0.0099 -0.9997 0.0232
vn -0.8636 0.4877 0.1283
vn -0.5421 -0.7609 0.3565
vn -0.3628 0.9318 0.0139
vn -0.8302 -0.1713 0.5304
vn 0.9842 -0.1642 -0.0659
vn -0.7308 0.4946 0.4704
vn 0.0636 -0.9868 0.1491
vn -0.2850 0.9372 0.2013
vn 0.4173 0.8969 0.1462
vn 0.8845 0.4664 0.0148
vn 0.9831 -0.1649 -0.0790
vn 0.6481 -0.7554 -0.0962
vn -0.0088 -0.9997 -0.0207
vn -0.6437 -0.7573 0.1103
vn -0.9569 -0.1714 0.2343
vn -0.8137 0.4995 0.2974
vn -0.2565 0.9304 0.2618
usemtl None
s off
f 22/1/1 20/2/1 37/3/1 38/4/1
f 1/5/2 2/6/2 4/7/2 3/8/2
f 16/9/3 14/10/3 34/11/3 35/12/3
f 3/8/4 4/7/4 6/13/4 5/14/4
f 10/15/5 8/16/5 31/17/5 32/18/5
f 5/19/6 6/20/6 8/21/6 7/22/6
f 4/23/7 2/24/7 27/25/7 29/26/7
f 7/22/8 8/21/8 10/27/8 9/28/8
f 2/24/9 26/29/9 40/30/9 27/25/9
f 9/28/10 10/27/10 12/31/10 11/32/10
f 24/33/11 22/1/11 38/4/11 39/34/11
f 11/35/12 12/36/12 14/37/12 13/38/12
f 18/39/13 16/9/13 35/12/13 36/40/13
f 13/38/14 14/37/14 16/41/14 15/42/14
f 12/43/15 10/15/15 32/18/15 33/44/15
f 15/42/16 16/41/16 18/45/16 17/46/16
f 6/47/17 4/23/17 29/26/17 30/48/17
f 17/49/18 18/50/18 20/51/18 19/52/18
f 26/29/19 24/53/19 39/54/19 40/30/19
f 19/52/20 20/51/20 22/55/20 21/56/20
f 20/2/21 18/57/21 36/58/21 37/3/21
f 21/56/22 22/55/22 24/59/22 23/60/22
f 14/10/23 12/61/23 33/62/23 34/11/23
f 23/63/24 24/64/24 26/65/24 25/66/24
f 8/16/25 6/67/25 30/68/25 31/17/25
f 25/66/26 26/65/26 2/6/26 1/5/26
f 36/69/27 35/70/27 49/71/27 50/72/27
f 32/73/28 31/74/28 45/75/28 46/76/28
f 39/77/29 38/78/29 52/79/29 53/80/29
f 35/70/30 34/81/30 48/82/30 49/71/30
f 31/74/31 30/83/31 44/84/31 45/75/31
f 38/78/32 37/85/32 51/86/32 52/79/32
f 34/81/33 33/87/33 47/88/33 48/82/33
f 30/89/34 29/90/34 43/91/34 44/92/34
f 37/85/35 36/93/35 50/94/35 51/86/35
f 27/95/36 40/96/36 54/97/36 41/98/36
f 33/99/37 32/73/37 46/76/37 47/100/37
f 29/90/38 27/95/38 41/98/38 43/91/38
f 40/96/39 39/101/39 53/102/39 54/97/39
f 48/103/40 47/104/40 59/105/40 60/106/40
f 44/107/41 43/108/41 55/109/41 56/110/41
f 51/111/42 50/112/42 62/113/42 63/114/42
f 41/115/43 54/116/43 66/117/43 28/118/43
f 47/119/44 46/120/44 58/121/44 59/122/44
f 43/108/45 41/115/45 28/118/45 55/109/45
f 54/116/46 53/123/46 65/124/46 66/117/46
f 50/125/47 49/126/47 61/127/47 62/128/47
f 46/120/48 45/129/48 57/130/48 58/121/48
f 53/131/49 52/132/49 64/133/49 65/134/49
f 49/126/50 48/103/50 60/106/50 61/127/50
f 45/129/51 44/135/51 56/136/51 57/130/51
f 52/132/52 51/111/52 63/114/52 64/133/52
f 62/137/53 61/138/53 74/139/53 75/140/53
f 58/141/54 57/142/54 70/143/54 71/144/54
f 65/145/55 64/146/55 77/147/55 78/148/55
f 61/138/56 60/149/56 73/150/56 74/139/56
f 57/142/57 56/151/57 69/152/57 70/143/57
f 64/146/58 63/153/58 76/154/58 77/147/58
f 60/149/59 59/155/59 72/156/59 73/150/59
f 56/157/60 55/158/60 68/159/60 69/160/60
f 63/153/61 62/161/61 75/162/61 76/154/61
f 28/163/62 66/164/62 79/165/62 42/166/62
f 59/167/63 58/141/63 71/144/63 72/168/63
f 55/158/64 28/163/64 42/166/64 68/159/64
f 66/164/65 65/169/65 78/170/65 79/165/65
f 67/171/66 68/172/66 42/173/66
f 67/171/67 69/174/67 68/172/67
f 67/175/68 70/176/68 69/177/68
f 67/175/69 71/178/69 70/176/69
f 67/175/70 72/179/70 71/178/70
f 67/180/71 73/181/71 72/182/71
f 67/180/72 74/183/72 73/181/72
f 67/180/73 75/184/73 74/183/73
f 67/185/74 76/186/74 75/187/74
f 67/185/75 77/188/75 76/186/75
f 67/171/76 78/189/76 77/190/76
f 67/171/77 79/191/77 78/189/77
f 67/171/78 42/173/78 79/191/78
f 95/192/79 93/193/79 105/194/79 106/195/79
f 80/196/80 81/197/80 83/198/80 82/199/80
f 83/200/81 81/201/81 98/202/81 100/203/81
f 82/204/82 83/205/82 85/206/82 84/207/82
f 85/208/83 83/209/83 100/210/83 101/211/83
f 84/207/84 85/206/84 87/212/84 86/213/84
f 89/214/85 87/215/85 102/216/85 103/217/85
f 86/218/86 87/219/86 89/220/86 88/221/86
f 93/222/87 91/223/87 104/224/87 105/225/87
f 88/221/88 89/220/88 91/226/88 90/227/88
f 97/228/89 95/192/89 106/195/89 107/229/89
f 90/227/90 91/226/90 93/230/90 92/231/90
f 81/201/91 97/232/91 107/233/91 98/202/91
f 92/234/92 93/235/92 95/236/92 94/237/92
f 87/238/93 85/208/93 101/211/93 102/239/93
f 94/237/94 95/236/94 97/240/94 96/241/94
f 91/223/95 89/242/95 103/243/95 104/224/95
f 96/244/96 97/245/96 81/197/96 80/196/96
f 99/246/97 100/247/97 98/248/97
f 99/249/98 101/250/98 100/251/98
f 99/249/99 102/252/99 101/250/99
f 99/253/100 103/254/100 102/255/100
f 99/253/101 104/256/101 103/254/101
f 99/253/102 105/257/102 104/256/102
f 99/258/103 106/259/103 105/260/103
f 99/258/104 107/261/104 106/259/104
f 99/246/105 98/248/105 107/262/105
